<?xml version="1.0" encoding="utf-8" standalone="no"?>
<!DOCTYPE svg PUBLIC "-//W3C//DTD SVG 1.1//EN"
  "http://www.w3.org/Graphics/SVG/1.1/DTD/svg11.dtd">
<svg xmlns:xlink="http://www.w3.org/1999/xlink" width="540pt" height="432pt" viewBox="0 0 540 432" xmlns="http://www.w3.org/2000/svg" version="1.1">
 <metadata>
  <rdf:RDF xmlns:dc="http://purl.org/dc/elements/1.1/" xmlns:cc="http://creativecommons.org/ns#" xmlns:rdf="http://www.w3.org/1999/02/22-rdf-syntax-ns#">
   <cc:Work>
    <dc:type rdf:resource="http://purl.org/dc/dcmitype/StillImage"/>
    <dc:date>2025-05-27T16:18:43.930543</dc:date>
    <dc:format>image/svg+xml</dc:format>
    <dc:creator>
     <cc:Agent>
      <dc:title>Matplotlib v3.10.0, https://matplotlib.org/</dc:title>
     </cc:Agent>
    </dc:creator>
   </cc:Work>
  </rdf:RDF>
 </metadata>
 <defs>
  <style type="text/css">*{stroke-linejoin: round; stroke-linecap: butt}</style>
 </defs>
 <g id="figure_1">
  <g id="patch_1">
   <path d="M 0 432 
L 540 432 
L 540 0 
L 0 0 
z
" style="fill: #ffffff"/>
  </g>
  <g id="axes_1">
   <g id="patch_2">
    <path d="M 64.850625 382.336875 
L 527.04 382.336875 
L 527.04 27.86 
L 64.850625 27.86 
z
" style="fill: #ffffff"/>
   </g>
   <g id="LineCollection_1">
    <path d="M 85.859233 358.637044 
L 86.750383 358.637044 
" clip-path="url(#p7aab3ed7e5)" style="fill: none; stroke: #808080"/>
    <path d="M 138.269359 285.156694 
L 139.160509 285.156694 
" clip-path="url(#p7aab3ed7e5)" style="fill: none; stroke: #808080"/>
    <path d="M 243.089611 224.856777 
L 243.980762 224.856777 
" clip-path="url(#p7aab3ed7e5)" style="fill: none; stroke: #808080"/>
    <path d="M 347.909863 142.440267 
L 348.801014 142.440267 
" clip-path="url(#p7aab3ed7e5)" style="fill: none; stroke: #808080"/>
    <path d="M 400.319989 151.406709 
L 401.21114 151.406709 
" clip-path="url(#p7aab3ed7e5)" style="fill: none; stroke: #808080"/>
    <path d="M 505.140242 53.199267 
L 506.031392 53.199267 
" clip-path="url(#p7aab3ed7e5)" style="fill: none; stroke: #808080"/>
   </g>
   <g id="LineCollection_2">
    <path d="M 86.304808 366.22429 
L 86.304808 351.049799 
" clip-path="url(#p7aab3ed7e5)" style="fill: none; stroke: #808080"/>
    <path d="M 138.714934 293.169047 
L 138.714934 277.144341 
" clip-path="url(#p7aab3ed7e5)" style="fill: none; stroke: #808080"/>
    <path d="M 243.535186 233.201823 
L 243.535186 216.511731 
" clip-path="url(#p7aab3ed7e5)" style="fill: none; stroke: #808080"/>
    <path d="M 348.355439 151.219662 
L 348.355439 133.660872 
" clip-path="url(#p7aab3ed7e5)" style="fill: none; stroke: #808080"/>
    <path d="M 400.765565 160.139897 
L 400.765565 142.673522 
" clip-path="url(#p7aab3ed7e5)" style="fill: none; stroke: #808080"/>
    <path d="M 505.585817 62.42595 
L 505.585817 43.972585 
" clip-path="url(#p7aab3ed7e5)" style="fill: none; stroke: #808080"/>
   </g>
   <g id="line2d_1">
    <defs>
     <path id="mf981d2938e" d="M 0 3 
L 0 -3 
" style="stroke: #808080; stroke-width: 0.5"/>
    </defs>
    <g clip-path="url(#p7aab3ed7e5)">
     <use xlink:href="#mf981d2938e" x="85.859233" y="358.637044" style="fill: #808080; stroke: #808080; stroke-width: 0.5"/>
     <use xlink:href="#mf981d2938e" x="138.269359" y="285.156694" style="fill: #808080; stroke: #808080; stroke-width: 0.5"/>
     <use xlink:href="#mf981d2938e" x="243.089611" y="224.856777" style="fill: #808080; stroke: #808080; stroke-width: 0.5"/>
     <use xlink:href="#mf981d2938e" x="347.909863" y="142.440267" style="fill: #808080; stroke: #808080; stroke-width: 0.5"/>
     <use xlink:href="#mf981d2938e" x="400.319989" y="151.406709" style="fill: #808080; stroke: #808080; stroke-width: 0.5"/>
     <use xlink:href="#mf981d2938e" x="505.140242" y="53.199267" style="fill: #808080; stroke: #808080; stroke-width: 0.5"/>
    </g>
   </g>
   <g id="line2d_2">
    <g clip-path="url(#p7aab3ed7e5)">
     <use xlink:href="#mf981d2938e" x="86.750383" y="358.637044" style="fill: #808080; stroke: #808080; stroke-width: 0.5"/>
     <use xlink:href="#mf981d2938e" x="139.160509" y="285.156694" style="fill: #808080; stroke: #808080; stroke-width: 0.5"/>
     <use xlink:href="#mf981d2938e" x="243.980762" y="224.856777" style="fill: #808080; stroke: #808080; stroke-width: 0.5"/>
     <use xlink:href="#mf981d2938e" x="348.801014" y="142.440267" style="fill: #808080; stroke: #808080; stroke-width: 0.5"/>
     <use xlink:href="#mf981d2938e" x="401.21114" y="151.406709" style="fill: #808080; stroke: #808080; stroke-width: 0.5"/>
     <use xlink:href="#mf981d2938e" x="506.031392" y="53.199267" style="fill: #808080; stroke: #808080; stroke-width: 0.5"/>
    </g>
   </g>
   <g id="line2d_3">
    <defs>
     <path id="m01703803c9" d="M 3 0 
L -3 -0 
" style="stroke: #808080; stroke-width: 0.5"/>
    </defs>
    <g clip-path="url(#p7aab3ed7e5)">
     <use xlink:href="#m01703803c9" x="86.304808" y="366.22429" style="fill: #808080; stroke: #808080; stroke-width: 0.5"/>
     <use xlink:href="#m01703803c9" x="138.714934" y="293.169047" style="fill: #808080; stroke: #808080; stroke-width: 0.5"/>
     <use xlink:href="#m01703803c9" x="243.535186" y="233.201823" style="fill: #808080; stroke: #808080; stroke-width: 0.5"/>
     <use xlink:href="#m01703803c9" x="348.355439" y="151.219662" style="fill: #808080; stroke: #808080; stroke-width: 0.5"/>
     <use xlink:href="#m01703803c9" x="400.765565" y="160.139897" style="fill: #808080; stroke: #808080; stroke-width: 0.5"/>
     <use xlink:href="#m01703803c9" x="505.585817" y="62.42595" style="fill: #808080; stroke: #808080; stroke-width: 0.5"/>
    </g>
   </g>
   <g id="line2d_4">
    <g clip-path="url(#p7aab3ed7e5)">
     <use xlink:href="#m01703803c9" x="86.304808" y="351.049799" style="fill: #808080; stroke: #808080; stroke-width: 0.5"/>
     <use xlink:href="#m01703803c9" x="138.714934" y="277.144341" style="fill: #808080; stroke: #808080; stroke-width: 0.5"/>
     <use xlink:href="#m01703803c9" x="243.535186" y="216.511731" style="fill: #808080; stroke: #808080; stroke-width: 0.5"/>
     <use xlink:href="#m01703803c9" x="348.355439" y="133.660872" style="fill: #808080; stroke: #808080; stroke-width: 0.5"/>
     <use xlink:href="#m01703803c9" x="400.765565" y="142.673522" style="fill: #808080; stroke: #808080; stroke-width: 0.5"/>
     <use xlink:href="#m01703803c9" x="505.585817" y="43.972585" style="fill: #808080; stroke: #808080; stroke-width: 0.5"/>
    </g>
   </g>
   <g id="line2d_5">
    <path d="M 41.84979 369.610235 
L 541 30.680237 
L 541 30.680237 
" clip-path="url(#p7aab3ed7e5)" style="fill: none; stroke: #ff0000; stroke-width: 2; stroke-linecap: square"/>
   </g>
   <g id="line2d_6">
    <defs>
     <path id="mf54569d8dc" d="M 0 3 
C 0.795609 3 1.55874 2.683901 2.12132 2.12132 
C 2.683901 1.55874 3 0.795609 3 0 
C 3 -0.795609 2.683901 -1.55874 2.12132 -2.12132 
C 1.55874 -2.683901 0.795609 -3 0 -3 
C -0.795609 -3 -1.55874 -2.683901 -2.12132 -2.12132 
C -2.683901 -1.55874 -3 -0.795609 -3 0 
C -3 0.795609 -2.683901 1.55874 -2.12132 2.12132 
C -1.55874 2.683901 -0.795609 3 0 3 
z
" style="stroke: #000000; stroke-width: 0.5"/>
    </defs>
    <g clip-path="url(#p7aab3ed7e5)">
     <use xlink:href="#mf54569d8dc" x="86.304808" y="358.637044" style="fill: #0000ff; stroke: #000000; stroke-width: 0.5"/>
     <use xlink:href="#mf54569d8dc" x="138.714934" y="285.156694" style="fill: #0000ff; stroke: #000000; stroke-width: 0.5"/>
     <use xlink:href="#mf54569d8dc" x="243.535186" y="224.856777" style="fill: #0000ff; stroke: #000000; stroke-width: 0.5"/>
     <use xlink:href="#mf54569d8dc" x="348.355439" y="142.440267" style="fill: #0000ff; stroke: #000000; stroke-width: 0.5"/>
     <use xlink:href="#mf54569d8dc" x="400.765565" y="151.406709" style="fill: #0000ff; stroke: #000000; stroke-width: 0.5"/>
     <use xlink:href="#mf54569d8dc" x="505.585817" y="53.199267" style="fill: #0000ff; stroke: #000000; stroke-width: 0.5"/>
    </g>
   </g>
   <g id="patch_3">
    <path d="M 64.850625 382.336875 
L 64.850625 27.86 
" style="fill: none; stroke: #000000; stroke-linejoin: miter; stroke-linecap: square"/>
   </g>
   <g id="patch_4">
    <path d="M 527.04 382.336875 
L 527.04 27.86 
" style="fill: none; stroke: #000000; stroke-linejoin: miter; stroke-linecap: square"/>
   </g>
   <g id="patch_5">
    <path d="M 64.850625 382.336875 
L 527.04 382.336875 
" style="fill: none; stroke: #000000; stroke-linejoin: miter; stroke-linecap: square"/>
   </g>
   <g id="patch_6">
    <path d="M 64.850625 27.86 
L 527.04 27.86 
" style="fill: none; stroke: #000000; stroke-linejoin: miter; stroke-linecap: square"/>
   </g>
   <g id="matplotlib.axis_1">
    <g id="xtick_1">
     <g id="line2d_7">
      <path d="M 95.663759 382.336875 
L 95.663759 27.86 
" clip-path="url(#p7aab3ed7e5)" style="fill: none; stroke-dasharray: 1,3; stroke-dashoffset: 0; stroke: #000000; stroke-width: 0.5"/>
     </g>
     <g id="line2d_8">
      <defs>
       <path id="m8a3857c527" d="M 0 0 
L 0 -4 
" style="stroke: #000000; stroke-width: 0.5"/>
      </defs>
      <g>
       <use xlink:href="#m8a3857c527" x="95.663759" y="382.336875" style="stroke: #000000; stroke-width: 0.5"/>
      </g>
     </g>
     <g id="line2d_9">
      <defs>
       <path id="m63776f0ae2" d="M 0 0 
L 0 4 
" style="stroke: #000000; stroke-width: 0.5"/>
      </defs>
      <g>
       <use xlink:href="#m63776f0ae2" x="95.663759" y="27.86" style="stroke: #000000; stroke-width: 0.5"/>
      </g>
     </g>
     <g id="text_1">
      <!-- 0.60 -->
      <g transform="translate(82.304384 395.455) scale(0.12 -0.12)">
       <defs>
        <path id="DejaVuSans-30" d="M 2034 4250 
Q 1547 4250 1301 3770 
Q 1056 3291 1056 2328 
Q 1056 1369 1301 889 
Q 1547 409 2034 409 
Q 2525 409 2770 889 
Q 3016 1369 3016 2328 
Q 3016 3291 2770 3770 
Q 2525 4250 2034 4250 
z
M 2034 4750 
Q 2819 4750 3233 4129 
Q 3647 3509 3647 2328 
Q 3647 1150 3233 529 
Q 2819 -91 2034 -91 
Q 1250 -91 836 529 
Q 422 1150 422 2328 
Q 422 3509 836 4129 
Q 1250 4750 2034 4750 
z
" transform="scale(0.015625)"/>
        <path id="DejaVuSans-2e" d="M 684 794 
L 1344 794 
L 1344 0 
L 684 0 
L 684 794 
z
" transform="scale(0.015625)"/>
        <path id="DejaVuSans-36" d="M 2113 2584 
Q 1688 2584 1439 2293 
Q 1191 2003 1191 1497 
Q 1191 994 1439 701 
Q 1688 409 2113 409 
Q 2538 409 2786 701 
Q 3034 994 3034 1497 
Q 3034 2003 2786 2293 
Q 2538 2584 2113 2584 
z
M 3366 4563 
L 3366 3988 
Q 3128 4100 2886 4159 
Q 2644 4219 2406 4219 
Q 1781 4219 1451 3797 
Q 1122 3375 1075 2522 
Q 1259 2794 1537 2939 
Q 1816 3084 2150 3084 
Q 2853 3084 3261 2657 
Q 3669 2231 3669 1497 
Q 3669 778 3244 343 
Q 2819 -91 2113 -91 
Q 1303 -91 875 529 
Q 447 1150 447 2328 
Q 447 3434 972 4092 
Q 1497 4750 2381 4750 
Q 2619 4750 2861 4703 
Q 3103 4656 3366 4563 
z
" transform="scale(0.015625)"/>
       </defs>
       <use xlink:href="#DejaVuSans-30"/>
       <use xlink:href="#DejaVuSans-2e" transform="translate(63.623047 0)"/>
       <use xlink:href="#DejaVuSans-36" transform="translate(95.410156 0)"/>
       <use xlink:href="#DejaVuSans-30" transform="translate(159.033203 0)"/>
      </g>
     </g>
    </g>
    <g id="xtick_2">
     <g id="line2d_10">
      <path d="M 170.535368 382.336875 
L 170.535368 27.86 
" clip-path="url(#p7aab3ed7e5)" style="fill: none; stroke-dasharray: 1,3; stroke-dashoffset: 0; stroke: #000000; stroke-width: 0.5"/>
     </g>
     <g id="line2d_11">
      <g>
       <use xlink:href="#m8a3857c527" x="170.535368" y="382.336875" style="stroke: #000000; stroke-width: 0.5"/>
      </g>
     </g>
     <g id="line2d_12">
      <g>
       <use xlink:href="#m63776f0ae2" x="170.535368" y="27.86" style="stroke: #000000; stroke-width: 0.5"/>
      </g>
     </g>
     <g id="text_2">
      <!-- 0.65 -->
      <g transform="translate(157.175993 395.455) scale(0.12 -0.12)">
       <defs>
        <path id="DejaVuSans-35" d="M 691 4666 
L 3169 4666 
L 3169 4134 
L 1269 4134 
L 1269 2991 
Q 1406 3038 1543 3061 
Q 1681 3084 1819 3084 
Q 2600 3084 3056 2656 
Q 3513 2228 3513 1497 
Q 3513 744 3044 326 
Q 2575 -91 1722 -91 
Q 1428 -91 1123 -41 
Q 819 9 494 109 
L 494 744 
Q 775 591 1075 516 
Q 1375 441 1709 441 
Q 2250 441 2565 725 
Q 2881 1009 2881 1497 
Q 2881 1984 2565 2268 
Q 2250 2553 1709 2553 
Q 1456 2553 1204 2497 
Q 953 2441 691 2322 
L 691 4666 
z
" transform="scale(0.015625)"/>
       </defs>
       <use xlink:href="#DejaVuSans-30"/>
       <use xlink:href="#DejaVuSans-2e" transform="translate(63.623047 0)"/>
       <use xlink:href="#DejaVuSans-36" transform="translate(95.410156 0)"/>
       <use xlink:href="#DejaVuSans-35" transform="translate(159.033203 0)"/>
      </g>
     </g>
    </g>
    <g id="xtick_3">
     <g id="line2d_13">
      <path d="M 245.406977 382.336875 
L 245.406977 27.86 
" clip-path="url(#p7aab3ed7e5)" style="fill: none; stroke-dasharray: 1,3; stroke-dashoffset: 0; stroke: #000000; stroke-width: 0.5"/>
     </g>
     <g id="line2d_14">
      <g>
       <use xlink:href="#m8a3857c527" x="245.406977" y="382.336875" style="stroke: #000000; stroke-width: 0.5"/>
      </g>
     </g>
     <g id="line2d_15">
      <g>
       <use xlink:href="#m63776f0ae2" x="245.406977" y="27.86" style="stroke: #000000; stroke-width: 0.5"/>
      </g>
     </g>
     <g id="text_3">
      <!-- 0.70 -->
      <g transform="translate(232.047602 395.455) scale(0.12 -0.12)">
       <defs>
        <path id="DejaVuSans-37" d="M 525 4666 
L 3525 4666 
L 3525 4397 
L 1831 0 
L 1172 0 
L 2766 4134 
L 525 4134 
L 525 4666 
z
" transform="scale(0.015625)"/>
       </defs>
       <use xlink:href="#DejaVuSans-30"/>
       <use xlink:href="#DejaVuSans-2e" transform="translate(63.623047 0)"/>
       <use xlink:href="#DejaVuSans-37" transform="translate(95.410156 0)"/>
       <use xlink:href="#DejaVuSans-30" transform="translate(159.033203 0)"/>
      </g>
     </g>
    </g>
    <g id="xtick_4">
     <g id="line2d_16">
      <path d="M 320.278585 382.336875 
L 320.278585 27.86 
" clip-path="url(#p7aab3ed7e5)" style="fill: none; stroke-dasharray: 1,3; stroke-dashoffset: 0; stroke: #000000; stroke-width: 0.5"/>
     </g>
     <g id="line2d_17">
      <g>
       <use xlink:href="#m8a3857c527" x="320.278585" y="382.336875" style="stroke: #000000; stroke-width: 0.5"/>
      </g>
     </g>
     <g id="line2d_18">
      <g>
       <use xlink:href="#m63776f0ae2" x="320.278585" y="27.86" style="stroke: #000000; stroke-width: 0.5"/>
      </g>
     </g>
     <g id="text_4">
      <!-- 0.75 -->
      <g transform="translate(306.91921 395.455) scale(0.12 -0.12)">
       <use xlink:href="#DejaVuSans-30"/>
       <use xlink:href="#DejaVuSans-2e" transform="translate(63.623047 0)"/>
       <use xlink:href="#DejaVuSans-37" transform="translate(95.410156 0)"/>
       <use xlink:href="#DejaVuSans-35" transform="translate(159.033203 0)"/>
      </g>
     </g>
    </g>
    <g id="xtick_5">
     <g id="line2d_19">
      <path d="M 395.150194 382.336875 
L 395.150194 27.86 
" clip-path="url(#p7aab3ed7e5)" style="fill: none; stroke-dasharray: 1,3; stroke-dashoffset: 0; stroke: #000000; stroke-width: 0.5"/>
     </g>
     <g id="line2d_20">
      <g>
       <use xlink:href="#m8a3857c527" x="395.150194" y="382.336875" style="stroke: #000000; stroke-width: 0.5"/>
      </g>
     </g>
     <g id="line2d_21">
      <g>
       <use xlink:href="#m63776f0ae2" x="395.150194" y="27.86" style="stroke: #000000; stroke-width: 0.5"/>
      </g>
     </g>
     <g id="text_5">
      <!-- 0.80 -->
      <g transform="translate(381.790819 395.455) scale(0.12 -0.12)">
       <defs>
        <path id="DejaVuSans-38" d="M 2034 2216 
Q 1584 2216 1326 1975 
Q 1069 1734 1069 1313 
Q 1069 891 1326 650 
Q 1584 409 2034 409 
Q 2484 409 2743 651 
Q 3003 894 3003 1313 
Q 3003 1734 2745 1975 
Q 2488 2216 2034 2216 
z
M 1403 2484 
Q 997 2584 770 2862 
Q 544 3141 544 3541 
Q 544 4100 942 4425 
Q 1341 4750 2034 4750 
Q 2731 4750 3128 4425 
Q 3525 4100 3525 3541 
Q 3525 3141 3298 2862 
Q 3072 2584 2669 2484 
Q 3125 2378 3379 2068 
Q 3634 1759 3634 1313 
Q 3634 634 3220 271 
Q 2806 -91 2034 -91 
Q 1263 -91 848 271 
Q 434 634 434 1313 
Q 434 1759 690 2068 
Q 947 2378 1403 2484 
z
M 1172 3481 
Q 1172 3119 1398 2916 
Q 1625 2713 2034 2713 
Q 2441 2713 2670 2916 
Q 2900 3119 2900 3481 
Q 2900 3844 2670 4047 
Q 2441 4250 2034 4250 
Q 1625 4250 1398 4047 
Q 1172 3844 1172 3481 
z
" transform="scale(0.015625)"/>
       </defs>
       <use xlink:href="#DejaVuSans-30"/>
       <use xlink:href="#DejaVuSans-2e" transform="translate(63.623047 0)"/>
       <use xlink:href="#DejaVuSans-38" transform="translate(95.410156 0)"/>
       <use xlink:href="#DejaVuSans-30" transform="translate(159.033203 0)"/>
      </g>
     </g>
    </g>
    <g id="xtick_6">
     <g id="line2d_22">
      <path d="M 470.021803 382.336875 
L 470.021803 27.86 
" clip-path="url(#p7aab3ed7e5)" style="fill: none; stroke-dasharray: 1,3; stroke-dashoffset: 0; stroke: #000000; stroke-width: 0.5"/>
     </g>
     <g id="line2d_23">
      <g>
       <use xlink:href="#m8a3857c527" x="470.021803" y="382.336875" style="stroke: #000000; stroke-width: 0.5"/>
      </g>
     </g>
     <g id="line2d_24">
      <g>
       <use xlink:href="#m63776f0ae2" x="470.021803" y="27.86" style="stroke: #000000; stroke-width: 0.5"/>
      </g>
     </g>
     <g id="text_6">
      <!-- 0.85 -->
      <g transform="translate(456.662428 395.455) scale(0.12 -0.12)">
       <use xlink:href="#DejaVuSans-30"/>
       <use xlink:href="#DejaVuSans-2e" transform="translate(63.623047 0)"/>
       <use xlink:href="#DejaVuSans-38" transform="translate(95.410156 0)"/>
       <use xlink:href="#DejaVuSans-35" transform="translate(159.033203 0)"/>
      </g>
     </g>
    </g>
    <g id="text_7">
     <!-- $h_{\mathrm{max}}\mathrm{(m)}$ -->
     <g transform="translate(274.585312 411.950625) scale(0.12 -0.12)">
      <defs>
       <path id="Cmmi10-68" d="M 341 116 
Q 341 153 347 172 
L 1275 3872 
Q 1300 3981 1306 4044 
Q 1306 4147 891 4147 
Q 825 4147 825 4231 
Q 828 4247 839 4287 
Q 850 4328 867 4350 
Q 884 4372 916 4372 
L 1778 4441 
L 1797 4441 
Q 1797 4434 1819 4423 
Q 1841 4413 1844 4409 
Q 1856 4378 1856 4359 
L 1356 2363 
Q 1750 2828 2291 2828 
Q 2516 2828 2680 2750 
Q 2844 2672 2936 2514 
Q 3028 2356 3028 2138 
Q 3028 1875 2911 1503 
Q 2794 1131 2619 672 
Q 2528 463 2528 288 
Q 2528 97 2675 97 
Q 2925 97 3092 364 
Q 3259 631 3328 941 
Q 3341 978 3378 978 
L 3456 978 
Q 3481 978 3497 961 
Q 3513 944 3513 922 
Q 3513 916 3506 903 
Q 3450 672 3339 448 
Q 3228 225 3059 76 
Q 2891 -72 2663 -72 
Q 2438 -72 2278 83 
Q 2119 238 2119 459 
Q 2119 578 2169 709 
Q 2350 1191 2470 1569 
Q 2591 1947 2591 2234 
Q 2591 2419 2519 2541 
Q 2447 2663 2278 2663 
Q 1934 2663 1678 2452 
Q 1422 2241 1234 1894 
L 800 147 
Q 775 50 703 -11 
Q 631 -72 538 -72 
Q 456 -72 398 -17 
Q 341 38 341 116 
z
" transform="scale(0.015625)"/>
       <path id="Cmr10-6d" d="M 191 0 
L 191 225 
Q 409 225 550 259 
Q 691 294 691 428 
L 691 2175 
Q 691 2347 639 2423 
Q 588 2500 491 2517 
Q 394 2534 191 2534 
L 191 2759 
L 1119 2828 
L 1119 2203 
Q 1247 2478 1498 2653 
Q 1750 2828 2047 2828 
Q 2784 2828 2913 2228 
Q 3041 2497 3287 2662 
Q 3534 2828 3828 2828 
Q 4119 2828 4317 2734 
Q 4516 2641 4616 2448 
Q 4716 2256 4716 1966 
L 4716 428 
Q 4716 294 4858 259 
Q 5000 225 5216 225 
L 5216 0 
L 3750 0 
L 3750 225 
Q 3969 225 4109 259 
Q 4250 294 4250 428 
L 4250 1947 
Q 4250 2269 4159 2466 
Q 4069 2663 3788 2663 
Q 3419 2663 3178 2366 
Q 2938 2069 2938 1691 
L 2938 428 
Q 2938 294 3078 259 
Q 3219 225 3438 225 
L 3438 0 
L 1972 0 
L 1972 225 
Q 2191 225 2331 259 
Q 2472 294 2472 428 
L 2472 1947 
Q 2472 2259 2381 2461 
Q 2291 2663 2009 2663 
Q 1638 2663 1398 2366 
Q 1159 2069 1159 1691 
L 1159 428 
Q 1159 294 1300 259 
Q 1441 225 1656 225 
L 1656 0 
L 191 0 
z
" transform="scale(0.015625)"/>
       <path id="Cmr10-61" d="M 256 628 
Q 256 1009 556 1248 
Q 856 1488 1276 1586 
Q 1697 1684 2075 1684 
L 2075 1947 
Q 2075 2131 1994 2304 
Q 1913 2478 1759 2589 
Q 1606 2700 1422 2700 
Q 997 2700 775 2509 
Q 897 2509 976 2417 
Q 1056 2325 1056 2203 
Q 1056 2075 965 1984 
Q 875 1894 750 1894 
Q 622 1894 531 1984 
Q 441 2075 441 2203 
Q 441 2541 747 2705 
Q 1053 2869 1422 2869 
Q 1681 2869 1943 2758 
Q 2206 2647 2373 2440 
Q 2541 2234 2541 1959 
L 2541 519 
Q 2541 394 2594 289 
Q 2647 184 2759 184 
Q 2866 184 2917 290 
Q 2969 397 2969 519 
L 2969 928 
L 3156 928 
L 3156 519 
Q 3156 375 3081 245 
Q 3006 116 2879 39 
Q 2753 -38 2606 -38 
Q 2419 -38 2283 107 
Q 2147 253 2131 453 
Q 2013 213 1781 70 
Q 1550 -72 1288 -72 
Q 1044 -72 808 0 
Q 572 72 414 226 
Q 256 381 256 628 
z
M 775 628 
Q 775 403 940 250 
Q 1106 97 1331 97 
Q 1538 97 1706 200 
Q 1875 303 1975 481 
Q 2075 659 2075 856 
L 2075 1522 
Q 1784 1522 1479 1426 
Q 1175 1331 975 1128 
Q 775 925 775 628 
z
" transform="scale(0.015625)"/>
       <path id="Cmr10-78" d="M 78 0 
L 78 225 
Q 322 225 537 320 
Q 753 416 903 603 
L 1484 1344 
L 728 2328 
Q 616 2469 483 2501 
Q 350 2534 109 2534 
L 109 2759 
L 1441 2759 
L 1441 2534 
Q 1356 2534 1282 2496 
Q 1209 2459 1209 2388 
Q 1209 2363 1228 2328 
L 1741 1663 
L 2125 2156 
Q 2203 2250 2203 2344 
Q 2203 2422 2151 2478 
Q 2100 2534 2016 2534 
L 2016 2759 
L 3194 2759 
L 3194 2534 
Q 2947 2534 2730 2439 
Q 2513 2344 2363 2156 
L 1856 1509 
L 2675 428 
Q 2797 288 2928 256 
Q 3059 225 3303 225 
L 3303 0 
L 1972 0 
L 1972 225 
Q 2050 225 2122 262 
Q 2194 300 2194 372 
Q 2194 400 2175 428 
L 1600 1191 
L 1141 603 
Q 1069 522 1069 416 
Q 1069 338 1122 281 
Q 1175 225 1247 225 
L 1247 0 
L 78 0 
z
" transform="scale(0.015625)"/>
       <path id="Cmr10-28" d="M 1984 -1588 
Q 1628 -1306 1370 -942 
Q 1113 -578 948 -165 
Q 784 247 703 697 
Q 622 1147 622 1600 
Q 622 2059 703 2509 
Q 784 2959 951 3375 
Q 1119 3791 1378 4153 
Q 1638 4516 1984 4788 
Q 1984 4800 2016 4800 
L 2075 4800 
Q 2094 4800 2109 4783 
Q 2125 4766 2125 4744 
Q 2125 4716 2113 4703 
Q 1800 4397 1592 4047 
Q 1384 3697 1257 3301 
Q 1131 2906 1075 2482 
Q 1019 2059 1019 1600 
Q 1019 -434 2106 -1491 
Q 2125 -1509 2125 -1544 
Q 2125 -1559 2108 -1579 
Q 2091 -1600 2075 -1600 
L 2016 -1600 
Q 1984 -1600 1984 -1588 
z
" transform="scale(0.015625)"/>
       <path id="Cmr10-29" d="M 416 -1600 
Q 359 -1600 359 -1544 
Q 359 -1516 372 -1503 
Q 1466 -434 1466 1600 
Q 1466 3634 384 4691 
Q 359 4706 359 4744 
Q 359 4766 376 4783 
Q 394 4800 416 4800 
L 475 4800 
Q 494 4800 506 4788 
Q 966 4425 1272 3906 
Q 1578 3388 1720 2800 
Q 1863 2213 1863 1600 
Q 1863 1147 1786 708 
Q 1709 269 1542 -157 
Q 1375 -584 1119 -945 
Q 863 -1306 506 -1588 
Q 494 -1600 475 -1600 
L 416 -1600 
z
" transform="scale(0.015625)"/>
      </defs>
      <use xlink:href="#Cmmi10-68"/>
      <use xlink:href="#Cmr10-6d" transform="translate(57.617188 -17.00625) scale(0.7)"/>
      <use xlink:href="#Cmr10-61" transform="translate(115.927734 -17.00625) scale(0.7)"/>
      <use xlink:href="#Cmr10-78" transform="translate(150.927734 -17.00625) scale(0.7)"/>
      <use xlink:href="#Cmr10-28" transform="translate(194.184961 0)"/>
      <use xlink:href="#Cmr10-6d" transform="translate(233.00332 0)"/>
      <use xlink:href="#Cmr10-29" transform="translate(316.304102 0)"/>
     </g>
    </g>
   </g>
   <g id="matplotlib.axis_2">
    <g id="ytick_1">
     <g id="line2d_25">
      <path d="M 64.850625 381.387676 
L 527.04 381.387676 
" clip-path="url(#p7aab3ed7e5)" style="fill: none; stroke-dasharray: 1,3; stroke-dashoffset: 0; stroke: #000000; stroke-width: 0.5"/>
     </g>
     <g id="line2d_26">
      <defs>
       <path id="mcc89f981f8" d="M 0 0 
L 4 0 
" style="stroke: #000000; stroke-width: 0.5"/>
      </defs>
      <g>
       <use xlink:href="#mcc89f981f8" x="64.850625" y="381.387676" style="stroke: #000000; stroke-width: 0.5"/>
      </g>
     </g>
     <g id="line2d_27">
      <defs>
       <path id="m72517d94bc" d="M 0 0 
L -4 0 
" style="stroke: #000000; stroke-width: 0.5"/>
      </defs>
      <g>
       <use xlink:href="#m72517d94bc" x="527.04" y="381.387676" style="stroke: #000000; stroke-width: 0.5"/>
      </g>
     </g>
     <g id="text_8">
      <!-- 0.65 -->
      <g transform="translate(34.131875 384.698926) scale(0.12 -0.12)">
       <use xlink:href="#DejaVuSans-30"/>
       <use xlink:href="#DejaVuSans-2e" transform="translate(63.623047 0)"/>
       <use xlink:href="#DejaVuSans-36" transform="translate(95.410156 0)"/>
       <use xlink:href="#DejaVuSans-35" transform="translate(159.033203 0)"/>
      </g>
     </g>
    </g>
    <g id="ytick_2">
     <g id="line2d_28">
      <path d="M 64.850625 334.071358 
L 527.04 334.071358 
" clip-path="url(#p7aab3ed7e5)" style="fill: none; stroke-dasharray: 1,3; stroke-dashoffset: 0; stroke: #000000; stroke-width: 0.5"/>
     </g>
     <g id="line2d_29">
      <g>
       <use xlink:href="#mcc89f981f8" x="64.850625" y="334.071358" style="stroke: #000000; stroke-width: 0.5"/>
      </g>
     </g>
     <g id="line2d_30">
      <g>
       <use xlink:href="#m72517d94bc" x="527.04" y="334.071358" style="stroke: #000000; stroke-width: 0.5"/>
      </g>
     </g>
     <g id="text_9">
      <!-- 0.70 -->
      <g transform="translate(34.131875 337.382608) scale(0.12 -0.12)">
       <use xlink:href="#DejaVuSans-30"/>
       <use xlink:href="#DejaVuSans-2e" transform="translate(63.623047 0)"/>
       <use xlink:href="#DejaVuSans-37" transform="translate(95.410156 0)"/>
       <use xlink:href="#DejaVuSans-30" transform="translate(159.033203 0)"/>
      </g>
     </g>
    </g>
    <g id="ytick_3">
     <g id="line2d_31">
      <path d="M 64.850625 286.755039 
L 527.04 286.755039 
" clip-path="url(#p7aab3ed7e5)" style="fill: none; stroke-dasharray: 1,3; stroke-dashoffset: 0; stroke: #000000; stroke-width: 0.5"/>
     </g>
     <g id="line2d_32">
      <g>
       <use xlink:href="#mcc89f981f8" x="64.850625" y="286.755039" style="stroke: #000000; stroke-width: 0.5"/>
      </g>
     </g>
     <g id="line2d_33">
      <g>
       <use xlink:href="#m72517d94bc" x="527.04" y="286.755039" style="stroke: #000000; stroke-width: 0.5"/>
      </g>
     </g>
     <g id="text_10">
      <!-- 0.75 -->
      <g transform="translate(34.131875 290.066289) scale(0.12 -0.12)">
       <use xlink:href="#DejaVuSans-30"/>
       <use xlink:href="#DejaVuSans-2e" transform="translate(63.623047 0)"/>
       <use xlink:href="#DejaVuSans-37" transform="translate(95.410156 0)"/>
       <use xlink:href="#DejaVuSans-35" transform="translate(159.033203 0)"/>
      </g>
     </g>
    </g>
    <g id="ytick_4">
     <g id="line2d_34">
      <path d="M 64.850625 239.43872 
L 527.04 239.43872 
" clip-path="url(#p7aab3ed7e5)" style="fill: none; stroke-dasharray: 1,3; stroke-dashoffset: 0; stroke: #000000; stroke-width: 0.5"/>
     </g>
     <g id="line2d_35">
      <g>
       <use xlink:href="#mcc89f981f8" x="64.850625" y="239.43872" style="stroke: #000000; stroke-width: 0.5"/>
      </g>
     </g>
     <g id="line2d_36">
      <g>
       <use xlink:href="#m72517d94bc" x="527.04" y="239.43872" style="stroke: #000000; stroke-width: 0.5"/>
      </g>
     </g>
     <g id="text_11">
      <!-- 0.80 -->
      <g transform="translate(34.131875 242.74997) scale(0.12 -0.12)">
       <use xlink:href="#DejaVuSans-30"/>
       <use xlink:href="#DejaVuSans-2e" transform="translate(63.623047 0)"/>
       <use xlink:href="#DejaVuSans-38" transform="translate(95.410156 0)"/>
       <use xlink:href="#DejaVuSans-30" transform="translate(159.033203 0)"/>
      </g>
     </g>
    </g>
    <g id="ytick_5">
     <g id="line2d_37">
      <path d="M 64.850625 192.122402 
L 527.04 192.122402 
" clip-path="url(#p7aab3ed7e5)" style="fill: none; stroke-dasharray: 1,3; stroke-dashoffset: 0; stroke: #000000; stroke-width: 0.5"/>
     </g>
     <g id="line2d_38">
      <g>
       <use xlink:href="#mcc89f981f8" x="64.850625" y="192.122402" style="stroke: #000000; stroke-width: 0.5"/>
      </g>
     </g>
     <g id="line2d_39">
      <g>
       <use xlink:href="#m72517d94bc" x="527.04" y="192.122402" style="stroke: #000000; stroke-width: 0.5"/>
      </g>
     </g>
     <g id="text_12">
      <!-- 0.85 -->
      <g transform="translate(34.131875 195.433652) scale(0.12 -0.12)">
       <use xlink:href="#DejaVuSans-30"/>
       <use xlink:href="#DejaVuSans-2e" transform="translate(63.623047 0)"/>
       <use xlink:href="#DejaVuSans-38" transform="translate(95.410156 0)"/>
       <use xlink:href="#DejaVuSans-35" transform="translate(159.033203 0)"/>
      </g>
     </g>
    </g>
    <g id="ytick_6">
     <g id="line2d_40">
      <path d="M 64.850625 144.806083 
L 527.04 144.806083 
" clip-path="url(#p7aab3ed7e5)" style="fill: none; stroke-dasharray: 1,3; stroke-dashoffset: 0; stroke: #000000; stroke-width: 0.5"/>
     </g>
     <g id="line2d_41">
      <g>
       <use xlink:href="#mcc89f981f8" x="64.850625" y="144.806083" style="stroke: #000000; stroke-width: 0.5"/>
      </g>
     </g>
     <g id="line2d_42">
      <g>
       <use xlink:href="#m72517d94bc" x="527.04" y="144.806083" style="stroke: #000000; stroke-width: 0.5"/>
      </g>
     </g>
     <g id="text_13">
      <!-- 0.90 -->
      <g transform="translate(34.131875 148.117333) scale(0.12 -0.12)">
       <defs>
        <path id="DejaVuSans-39" d="M 703 97 
L 703 672 
Q 941 559 1184 500 
Q 1428 441 1663 441 
Q 2288 441 2617 861 
Q 2947 1281 2994 2138 
Q 2813 1869 2534 1725 
Q 2256 1581 1919 1581 
Q 1219 1581 811 2004 
Q 403 2428 403 3163 
Q 403 3881 828 4315 
Q 1253 4750 1959 4750 
Q 2769 4750 3195 4129 
Q 3622 3509 3622 2328 
Q 3622 1225 3098 567 
Q 2575 -91 1691 -91 
Q 1453 -91 1209 -44 
Q 966 3 703 97 
z
M 1959 2075 
Q 2384 2075 2632 2365 
Q 2881 2656 2881 3163 
Q 2881 3666 2632 3958 
Q 2384 4250 1959 4250 
Q 1534 4250 1286 3958 
Q 1038 3666 1038 3163 
Q 1038 2656 1286 2365 
Q 1534 2075 1959 2075 
z
" transform="scale(0.015625)"/>
       </defs>
       <use xlink:href="#DejaVuSans-30"/>
       <use xlink:href="#DejaVuSans-2e" transform="translate(63.623047 0)"/>
       <use xlink:href="#DejaVuSans-39" transform="translate(95.410156 0)"/>
       <use xlink:href="#DejaVuSans-30" transform="translate(159.033203 0)"/>
      </g>
     </g>
    </g>
    <g id="ytick_7">
     <g id="line2d_43">
      <path d="M 64.850625 97.489764 
L 527.04 97.489764 
" clip-path="url(#p7aab3ed7e5)" style="fill: none; stroke-dasharray: 1,3; stroke-dashoffset: 0; stroke: #000000; stroke-width: 0.5"/>
     </g>
     <g id="line2d_44">
      <g>
       <use xlink:href="#mcc89f981f8" x="64.850625" y="97.489764" style="stroke: #000000; stroke-width: 0.5"/>
      </g>
     </g>
     <g id="line2d_45">
      <g>
       <use xlink:href="#m72517d94bc" x="527.04" y="97.489764" style="stroke: #000000; stroke-width: 0.5"/>
      </g>
     </g>
     <g id="text_14">
      <!-- 0.95 -->
      <g transform="translate(34.131875 100.801014) scale(0.12 -0.12)">
       <use xlink:href="#DejaVuSans-30"/>
       <use xlink:href="#DejaVuSans-2e" transform="translate(63.623047 0)"/>
       <use xlink:href="#DejaVuSans-39" transform="translate(95.410156 0)"/>
       <use xlink:href="#DejaVuSans-35" transform="translate(159.033203 0)"/>
      </g>
     </g>
    </g>
    <g id="ytick_8">
     <g id="line2d_46">
      <path d="M 64.850625 50.173446 
L 527.04 50.173446 
" clip-path="url(#p7aab3ed7e5)" style="fill: none; stroke-dasharray: 1,3; stroke-dashoffset: 0; stroke: #000000; stroke-width: 0.5"/>
     </g>
     <g id="line2d_47">
      <g>
       <use xlink:href="#mcc89f981f8" x="64.850625" y="50.173446" style="stroke: #000000; stroke-width: 0.5"/>
      </g>
     </g>
     <g id="line2d_48">
      <g>
       <use xlink:href="#m72517d94bc" x="527.04" y="50.173446" style="stroke: #000000; stroke-width: 0.5"/>
      </g>
     </g>
     <g id="text_15">
      <!-- 1.00 -->
      <g transform="translate(34.131875 53.484696) scale(0.12 -0.12)">
       <defs>
        <path id="DejaVuSans-31" d="M 794 531 
L 1825 531 
L 1825 4091 
L 703 3866 
L 703 4441 
L 1819 4666 
L 2450 4666 
L 2450 531 
L 3481 531 
L 3481 0 
L 794 0 
L 794 531 
z
" transform="scale(0.015625)"/>
       </defs>
       <use xlink:href="#DejaVuSans-31"/>
       <use xlink:href="#DejaVuSans-2e" transform="translate(63.623047 0)"/>
       <use xlink:href="#DejaVuSans-30" transform="translate(95.410156 0)"/>
       <use xlink:href="#DejaVuSans-30" transform="translate(159.033203 0)"/>
      </g>
     </g>
    </g>
    <g id="text_16">
     <!-- $\mathcal{E}_{\mathrm{max}}(\mathrm{V})$ -->
     <g transform="translate(26.131875 225.918437) rotate(-90) scale(0.12 -0.12)">
      <defs>
       <path id="Cmsy10-45" d="M 184 653 
Q 184 984 386 1314 
Q 588 1644 895 1905 
Q 1203 2166 1503 2316 
Q 1244 2419 1086 2597 
Q 928 2775 928 3034 
Q 928 3344 1115 3612 
Q 1303 3881 1606 4084 
Q 1909 4288 2251 4400 
Q 2594 4513 2875 4513 
L 2913 4513 
Q 3188 4513 3398 4416 
Q 3609 4319 3609 4084 
Q 3609 3928 3525 3787 
Q 3441 3647 3303 3555 
Q 3166 3463 3016 3450 
L 2981 3450 
Q 2969 3456 2953 3468 
Q 2938 3481 2938 3500 
Q 2938 3519 2944 3531 
Q 2975 3588 2995 3631 
Q 3016 3675 3028 3717 
Q 3041 3759 3041 3803 
Q 3041 3994 2861 4064 
Q 2681 4134 2450 4134 
Q 2206 4134 1984 4034 
Q 1763 3934 1630 3748 
Q 1497 3563 1497 3309 
Q 1497 2941 1840 2766 
Q 2184 2591 2584 2591 
Q 2631 2569 2631 2541 
Q 2631 2441 2445 2334 
Q 2259 2228 2144 2216 
Q 1588 2216 1184 1831 
Q 1006 1641 881 1397 
Q 756 1153 756 934 
Q 756 703 900 545 
Q 1044 388 1261 313 
Q 1478 238 1703 238 
Q 1988 238 2164 338 
Q 2341 438 2531 653 
Q 2722 869 2826 958 
Q 2931 1047 3116 1063 
L 3150 1063 
Q 3194 1041 3194 1013 
Q 3194 991 3169 941 
Q 2966 644 2659 398 
Q 2353 153 1990 6 
Q 1628 -141 1281 -141 
L 1241 -141 
Q 994 -141 747 -51 
Q 500 38 342 217 
Q 184 397 184 653 
z
" transform="scale(0.015625)"/>
       <path id="Cmr10-56" d="M 2253 -72 
L 744 3944 
Q 688 4078 528 4112 
Q 369 4147 122 4147 
L 122 4372 
L 1881 4372 
L 1881 4147 
Q 1350 4147 1350 3981 
Q 1353 3972 1354 3964 
Q 1356 3956 1356 3944 
L 2584 678 
L 3744 3769 
Q 3756 3794 3756 3847 
Q 3756 4003 3612 4075 
Q 3469 4147 3291 4147 
L 3291 4372 
L 4672 4372 
L 4672 4147 
Q 4431 4147 4248 4058 
Q 4066 3969 3988 3769 
L 2541 -72 
Q 2522 -141 2438 -141 
L 2356 -141 
Q 2272 -141 2253 -72 
z
" transform="scale(0.015625)"/>
      </defs>
      <use xlink:href="#Cmsy10-45"/>
      <use xlink:href="#Cmr10-6d" transform="translate(57.149687 -17.00625) scale(0.7)"/>
      <use xlink:href="#Cmr10-61" transform="translate(115.460234 -17.00625) scale(0.7)"/>
      <use xlink:href="#Cmr10-78" transform="translate(150.460234 -17.00625) scale(0.7)"/>
      <use xlink:href="#Cmr10-28" transform="translate(193.717461 0)"/>
      <use xlink:href="#Cmr10-56" transform="translate(232.53582 0)"/>
      <use xlink:href="#Cmr10-29" transform="translate(307.53582 0)"/>
     </g>
    </g>
   </g>
   <g id="text_17">
    <!-- Max EMF vs. Magnet Drop Height -->
    <g transform="translate(187.917344 22.86) scale(0.13 -0.13)">
     <defs>
      <path id="DejaVuSans-4d" d="M 628 4666 
L 1569 4666 
L 2759 1491 
L 3956 4666 
L 4897 4666 
L 4897 0 
L 4281 0 
L 4281 4097 
L 3078 897 
L 2444 897 
L 1241 4097 
L 1241 0 
L 628 0 
L 628 4666 
z
" transform="scale(0.015625)"/>
      <path id="DejaVuSans-61" d="M 2194 1759 
Q 1497 1759 1228 1600 
Q 959 1441 959 1056 
Q 959 750 1161 570 
Q 1363 391 1709 391 
Q 2188 391 2477 730 
Q 2766 1069 2766 1631 
L 2766 1759 
L 2194 1759 
z
M 3341 1997 
L 3341 0 
L 2766 0 
L 2766 531 
Q 2569 213 2275 61 
Q 1981 -91 1556 -91 
Q 1019 -91 701 211 
Q 384 513 384 1019 
Q 384 1609 779 1909 
Q 1175 2209 1959 2209 
L 2766 2209 
L 2766 2266 
Q 2766 2663 2505 2880 
Q 2244 3097 1772 3097 
Q 1472 3097 1187 3025 
Q 903 2953 641 2809 
L 641 3341 
Q 956 3463 1253 3523 
Q 1550 3584 1831 3584 
Q 2591 3584 2966 3190 
Q 3341 2797 3341 1997 
z
" transform="scale(0.015625)"/>
      <path id="DejaVuSans-78" d="M 3513 3500 
L 2247 1797 
L 3578 0 
L 2900 0 
L 1881 1375 
L 863 0 
L 184 0 
L 1544 1831 
L 300 3500 
L 978 3500 
L 1906 2253 
L 2834 3500 
L 3513 3500 
z
" transform="scale(0.015625)"/>
      <path id="DejaVuSans-20" transform="scale(0.015625)"/>
      <path id="DejaVuSans-45" d="M 628 4666 
L 3578 4666 
L 3578 4134 
L 1259 4134 
L 1259 2753 
L 3481 2753 
L 3481 2222 
L 1259 2222 
L 1259 531 
L 3634 531 
L 3634 0 
L 628 0 
L 628 4666 
z
" transform="scale(0.015625)"/>
      <path id="DejaVuSans-46" d="M 628 4666 
L 3309 4666 
L 3309 4134 
L 1259 4134 
L 1259 2759 
L 3109 2759 
L 3109 2228 
L 1259 2228 
L 1259 0 
L 628 0 
L 628 4666 
z
" transform="scale(0.015625)"/>
      <path id="DejaVuSans-76" d="M 191 3500 
L 800 3500 
L 1894 563 
L 2988 3500 
L 3597 3500 
L 2284 0 
L 1503 0 
L 191 3500 
z
" transform="scale(0.015625)"/>
      <path id="DejaVuSans-73" d="M 2834 3397 
L 2834 2853 
Q 2591 2978 2328 3040 
Q 2066 3103 1784 3103 
Q 1356 3103 1142 2972 
Q 928 2841 928 2578 
Q 928 2378 1081 2264 
Q 1234 2150 1697 2047 
L 1894 2003 
Q 2506 1872 2764 1633 
Q 3022 1394 3022 966 
Q 3022 478 2636 193 
Q 2250 -91 1575 -91 
Q 1294 -91 989 -36 
Q 684 19 347 128 
L 347 722 
Q 666 556 975 473 
Q 1284 391 1588 391 
Q 1994 391 2212 530 
Q 2431 669 2431 922 
Q 2431 1156 2273 1281 
Q 2116 1406 1581 1522 
L 1381 1569 
Q 847 1681 609 1914 
Q 372 2147 372 2553 
Q 372 3047 722 3315 
Q 1072 3584 1716 3584 
Q 2034 3584 2315 3537 
Q 2597 3491 2834 3397 
z
" transform="scale(0.015625)"/>
      <path id="DejaVuSans-67" d="M 2906 1791 
Q 2906 2416 2648 2759 
Q 2391 3103 1925 3103 
Q 1463 3103 1205 2759 
Q 947 2416 947 1791 
Q 947 1169 1205 825 
Q 1463 481 1925 481 
Q 2391 481 2648 825 
Q 2906 1169 2906 1791 
z
M 3481 434 
Q 3481 -459 3084 -895 
Q 2688 -1331 1869 -1331 
Q 1566 -1331 1297 -1286 
Q 1028 -1241 775 -1147 
L 775 -588 
Q 1028 -725 1275 -790 
Q 1522 -856 1778 -856 
Q 2344 -856 2625 -561 
Q 2906 -266 2906 331 
L 2906 616 
Q 2728 306 2450 153 
Q 2172 0 1784 0 
Q 1141 0 747 490 
Q 353 981 353 1791 
Q 353 2603 747 3093 
Q 1141 3584 1784 3584 
Q 2172 3584 2450 3431 
Q 2728 3278 2906 2969 
L 2906 3500 
L 3481 3500 
L 3481 434 
z
" transform="scale(0.015625)"/>
      <path id="DejaVuSans-6e" d="M 3513 2113 
L 3513 0 
L 2938 0 
L 2938 2094 
Q 2938 2591 2744 2837 
Q 2550 3084 2163 3084 
Q 1697 3084 1428 2787 
Q 1159 2491 1159 1978 
L 1159 0 
L 581 0 
L 581 3500 
L 1159 3500 
L 1159 2956 
Q 1366 3272 1645 3428 
Q 1925 3584 2291 3584 
Q 2894 3584 3203 3211 
Q 3513 2838 3513 2113 
z
" transform="scale(0.015625)"/>
      <path id="DejaVuSans-65" d="M 3597 1894 
L 3597 1613 
L 953 1613 
Q 991 1019 1311 708 
Q 1631 397 2203 397 
Q 2534 397 2845 478 
Q 3156 559 3463 722 
L 3463 178 
Q 3153 47 2828 -22 
Q 2503 -91 2169 -91 
Q 1331 -91 842 396 
Q 353 884 353 1716 
Q 353 2575 817 3079 
Q 1281 3584 2069 3584 
Q 2775 3584 3186 3129 
Q 3597 2675 3597 1894 
z
M 3022 2063 
Q 3016 2534 2758 2815 
Q 2500 3097 2075 3097 
Q 1594 3097 1305 2825 
Q 1016 2553 972 2059 
L 3022 2063 
z
" transform="scale(0.015625)"/>
      <path id="DejaVuSans-74" d="M 1172 4494 
L 1172 3500 
L 2356 3500 
L 2356 3053 
L 1172 3053 
L 1172 1153 
Q 1172 725 1289 603 
Q 1406 481 1766 481 
L 2356 481 
L 2356 0 
L 1766 0 
Q 1100 0 847 248 
Q 594 497 594 1153 
L 594 3053 
L 172 3053 
L 172 3500 
L 594 3500 
L 594 4494 
L 1172 4494 
z
" transform="scale(0.015625)"/>
      <path id="DejaVuSans-44" d="M 1259 4147 
L 1259 519 
L 2022 519 
Q 2988 519 3436 956 
Q 3884 1394 3884 2338 
Q 3884 3275 3436 3711 
Q 2988 4147 2022 4147 
L 1259 4147 
z
M 628 4666 
L 1925 4666 
Q 3281 4666 3915 4102 
Q 4550 3538 4550 2338 
Q 4550 1131 3912 565 
Q 3275 0 1925 0 
L 628 0 
L 628 4666 
z
" transform="scale(0.015625)"/>
      <path id="DejaVuSans-72" d="M 2631 2963 
Q 2534 3019 2420 3045 
Q 2306 3072 2169 3072 
Q 1681 3072 1420 2755 
Q 1159 2438 1159 1844 
L 1159 0 
L 581 0 
L 581 3500 
L 1159 3500 
L 1159 2956 
Q 1341 3275 1631 3429 
Q 1922 3584 2338 3584 
Q 2397 3584 2469 3576 
Q 2541 3569 2628 3553 
L 2631 2963 
z
" transform="scale(0.015625)"/>
      <path id="DejaVuSans-6f" d="M 1959 3097 
Q 1497 3097 1228 2736 
Q 959 2375 959 1747 
Q 959 1119 1226 758 
Q 1494 397 1959 397 
Q 2419 397 2687 759 
Q 2956 1122 2956 1747 
Q 2956 2369 2687 2733 
Q 2419 3097 1959 3097 
z
M 1959 3584 
Q 2709 3584 3137 3096 
Q 3566 2609 3566 1747 
Q 3566 888 3137 398 
Q 2709 -91 1959 -91 
Q 1206 -91 779 398 
Q 353 888 353 1747 
Q 353 2609 779 3096 
Q 1206 3584 1959 3584 
z
" transform="scale(0.015625)"/>
      <path id="DejaVuSans-70" d="M 1159 525 
L 1159 -1331 
L 581 -1331 
L 581 3500 
L 1159 3500 
L 1159 2969 
Q 1341 3281 1617 3432 
Q 1894 3584 2278 3584 
Q 2916 3584 3314 3078 
Q 3713 2572 3713 1747 
Q 3713 922 3314 415 
Q 2916 -91 2278 -91 
Q 1894 -91 1617 61 
Q 1341 213 1159 525 
z
M 3116 1747 
Q 3116 2381 2855 2742 
Q 2594 3103 2138 3103 
Q 1681 3103 1420 2742 
Q 1159 2381 1159 1747 
Q 1159 1113 1420 752 
Q 1681 391 2138 391 
Q 2594 391 2855 752 
Q 3116 1113 3116 1747 
z
" transform="scale(0.015625)"/>
      <path id="DejaVuSans-48" d="M 628 4666 
L 1259 4666 
L 1259 2753 
L 3553 2753 
L 3553 4666 
L 4184 4666 
L 4184 0 
L 3553 0 
L 3553 2222 
L 1259 2222 
L 1259 0 
L 628 0 
L 628 4666 
z
" transform="scale(0.015625)"/>
      <path id="DejaVuSans-69" d="M 603 3500 
L 1178 3500 
L 1178 0 
L 603 0 
L 603 3500 
z
M 603 4863 
L 1178 4863 
L 1178 4134 
L 603 4134 
L 603 4863 
z
" transform="scale(0.015625)"/>
      <path id="DejaVuSans-68" d="M 3513 2113 
L 3513 0 
L 2938 0 
L 2938 2094 
Q 2938 2591 2744 2837 
Q 2550 3084 2163 3084 
Q 1697 3084 1428 2787 
Q 1159 2491 1159 1978 
L 1159 0 
L 581 0 
L 581 4863 
L 1159 4863 
L 1159 2956 
Q 1366 3272 1645 3428 
Q 1925 3584 2291 3584 
Q 2894 3584 3203 3211 
Q 3513 2838 3513 2113 
z
" transform="scale(0.015625)"/>
     </defs>
     <use xlink:href="#DejaVuSans-4d"/>
     <use xlink:href="#DejaVuSans-61" transform="translate(86.279297 0)"/>
     <use xlink:href="#DejaVuSans-78" transform="translate(147.558594 0)"/>
     <use xlink:href="#DejaVuSans-20" transform="translate(206.738281 0)"/>
     <use xlink:href="#DejaVuSans-45" transform="translate(238.525391 0)"/>
     <use xlink:href="#DejaVuSans-4d" transform="translate(301.708984 0)"/>
     <use xlink:href="#DejaVuSans-46" transform="translate(387.988281 0)"/>
     <use xlink:href="#DejaVuSans-20" transform="translate(445.507812 0)"/>
     <use xlink:href="#DejaVuSans-76" transform="translate(477.294922 0)"/>
     <use xlink:href="#DejaVuSans-73" transform="translate(536.474609 0)"/>
     <use xlink:href="#DejaVuSans-2e" transform="translate(588.574219 0)"/>
     <use xlink:href="#DejaVuSans-20" transform="translate(620.361328 0)"/>
     <use xlink:href="#DejaVuSans-4d" transform="translate(652.148438 0)"/>
     <use xlink:href="#DejaVuSans-61" transform="translate(738.427734 0)"/>
     <use xlink:href="#DejaVuSans-67" transform="translate(799.707031 0)"/>
     <use xlink:href="#DejaVuSans-6e" transform="translate(863.183594 0)"/>
     <use xlink:href="#DejaVuSans-65" transform="translate(926.5625 0)"/>
     <use xlink:href="#DejaVuSans-74" transform="translate(988.085938 0)"/>
     <use xlink:href="#DejaVuSans-20" transform="translate(1027.294922 0)"/>
     <use xlink:href="#DejaVuSans-44" transform="translate(1059.082031 0)"/>
     <use xlink:href="#DejaVuSans-72" transform="translate(1136.083984 0)"/>
     <use xlink:href="#DejaVuSans-6f" transform="translate(1174.947266 0)"/>
     <use xlink:href="#DejaVuSans-70" transform="translate(1236.128906 0)"/>
     <use xlink:href="#DejaVuSans-20" transform="translate(1299.605469 0)"/>
     <use xlink:href="#DejaVuSans-48" transform="translate(1331.392578 0)"/>
     <use xlink:href="#DejaVuSans-65" transform="translate(1406.587891 0)"/>
     <use xlink:href="#DejaVuSans-69" transform="translate(1468.111328 0)"/>
     <use xlink:href="#DejaVuSans-67" transform="translate(1495.894531 0)"/>
     <use xlink:href="#DejaVuSans-68" transform="translate(1559.371094 0)"/>
     <use xlink:href="#DejaVuSans-74" transform="translate(1622.75 0)"/>
    </g>
   </g>
   <g id="legend_1">
    <g id="patch_7">
     <path d="M 360.6525 81.653 
L 519.84 81.653 
L 519.84 35.06 
L 360.6525 35.06 
z
" style="fill: #ffffff; stroke: #000000; stroke-linejoin: miter"/>
    </g>
    <g id="line2d_49">
     <path d="M 370.7325 46.72175 
L 390.8925 46.72175 
" style="fill: none; stroke: #ff0000; stroke-width: 2; stroke-linecap: square"/>
    </g>
    <g id="text_18">
     <!-- $D_{1}x+D_{0}$ fit -->
     <g transform="translate(406.7325 51.76175) scale(0.144 -0.144)">
      <defs>
       <path id="Cmmi10-44" d="M 313 0 
Q 250 0 250 84 
Q 253 100 262 139 
Q 272 178 289 201 
Q 306 225 331 225 
Q 722 225 878 269 
Q 959 297 997 441 
L 1875 3956 
Q 1888 4019 1888 4044 
Q 1888 4113 1813 4122 
Q 1691 4147 1350 4147 
Q 1288 4147 1288 4231 
Q 1291 4247 1300 4286 
Q 1309 4325 1326 4348 
Q 1344 4372 1369 4372 
L 3669 4372 
Q 4116 4372 4450 4155 
Q 4784 3938 4962 3570 
Q 5141 3203 5141 2759 
Q 5141 2269 4937 1778 
Q 4734 1288 4368 881 
Q 4003 475 3534 237 
Q 3066 0 2572 0 
L 313 0 
z
M 1509 275 
Q 1509 225 1728 225 
L 2472 225 
Q 2828 225 3159 372 
Q 3491 519 3750 775 
Q 3991 1016 4175 1406 
Q 4359 1797 4461 2222 
Q 4563 2647 4563 3003 
Q 4563 3263 4486 3472 
Q 4409 3681 4270 3831 
Q 4131 3981 3922 4064 
Q 3713 4147 3450 4147 
L 2747 4147 
Q 2572 4147 2515 4117 
Q 2459 4088 2413 3928 
L 1538 416 
Q 1509 338 1509 275 
z
" transform="scale(0.015625)"/>
       <path id="Cmr10-31" d="M 594 0 
L 594 225 
Q 1394 225 1394 428 
L 1394 3788 
Q 1063 3628 556 3628 
L 556 3853 
Q 1341 3853 1741 4263 
L 1831 4263 
Q 1853 4263 1873 4245 
Q 1894 4228 1894 4206 
L 1894 428 
Q 1894 225 2694 225 
L 2694 0 
L 594 0 
z
" transform="scale(0.015625)"/>
       <path id="Cmmi10-78" d="M 500 184 
Q 613 97 819 97 
Q 1019 97 1172 289 
Q 1325 481 1381 709 
L 1672 1844 
Q 1741 2153 1741 2266 
Q 1741 2425 1652 2544 
Q 1563 2663 1403 2663 
Q 1200 2663 1022 2536 
Q 844 2409 722 2214 
Q 600 2019 550 1819 
Q 538 1778 500 1778 
L 422 1778 
Q 372 1778 372 1838 
L 372 1856 
Q 434 2094 584 2320 
Q 734 2547 951 2687 
Q 1169 2828 1416 2828 
Q 1650 2828 1839 2703 
Q 2028 2578 2106 2363 
Q 2216 2559 2386 2693 
Q 2556 2828 2759 2828 
Q 2897 2828 3040 2779 
Q 3184 2731 3275 2631 
Q 3366 2531 3366 2381 
Q 3366 2219 3261 2101 
Q 3156 1984 2994 1984 
Q 2891 1984 2822 2050 
Q 2753 2116 2753 2216 
Q 2753 2350 2845 2451 
Q 2938 2553 3066 2572 
Q 2950 2663 2747 2663 
Q 2541 2663 2389 2472 
Q 2238 2281 2175 2047 
L 1894 916 
Q 1825 659 1825 494 
Q 1825 331 1917 214 
Q 2009 97 2163 97 
Q 2463 97 2698 361 
Q 2934 625 3009 941 
Q 3022 978 3059 978 
L 3138 978 
Q 3163 978 3178 961 
Q 3194 944 3194 922 
Q 3194 916 3188 903 
Q 3097 522 2806 225 
Q 2516 -72 2150 -72 
Q 1916 -72 1727 54 
Q 1538 181 1459 397 
Q 1359 209 1182 68 
Q 1006 -72 806 -72 
Q 669 -72 523 -23 
Q 378 25 287 125 
Q 197 225 197 378 
Q 197 528 301 651 
Q 406 775 563 775 
Q 669 775 741 711 
Q 813 647 813 544 
Q 813 409 723 309 
Q 634 209 500 184 
z
" transform="scale(0.015625)"/>
       <path id="Cmr10-2b" d="M 481 1472 
Q 428 1472 393 1512 
Q 359 1553 359 1600 
Q 359 1647 393 1687 
Q 428 1728 481 1728 
L 2363 1728 
L 2363 3616 
Q 2363 3666 2400 3698 
Q 2438 3731 2491 3731 
Q 2538 3731 2578 3698 
Q 2619 3666 2619 3616 
L 2619 1728 
L 4500 1728 
Q 4547 1728 4581 1687 
Q 4616 1647 4616 1600 
Q 4616 1553 4581 1512 
Q 4547 1472 4500 1472 
L 2619 1472 
L 2619 -416 
Q 2619 -466 2578 -498 
Q 2538 -531 2491 -531 
Q 2438 -531 2400 -498 
Q 2363 -466 2363 -416 
L 2363 1472 
L 481 1472 
z
" transform="scale(0.015625)"/>
       <path id="Cmr10-30" d="M 1600 -141 
Q 816 -141 533 504 
Q 250 1150 250 2041 
Q 250 2597 351 3087 
Q 453 3578 754 3920 
Q 1056 4263 1600 4263 
Q 2022 4263 2290 4056 
Q 2559 3850 2700 3523 
Q 2841 3197 2892 2823 
Q 2944 2450 2944 2041 
Q 2944 1491 2842 1011 
Q 2741 531 2444 195 
Q 2147 -141 1600 -141 
z
M 1600 25 
Q 1956 25 2131 390 
Q 2306 756 2347 1200 
Q 2388 1644 2388 2144 
Q 2388 2625 2347 3031 
Q 2306 3438 2132 3767 
Q 1959 4097 1600 4097 
Q 1238 4097 1063 3765 
Q 888 3434 847 3029 
Q 806 2625 806 2144 
Q 806 1788 823 1472 
Q 841 1156 916 820 
Q 991 484 1158 254 
Q 1325 25 1600 25 
z
" transform="scale(0.015625)"/>
       <path id="DejaVuSans-66" d="M 2375 4863 
L 2375 4384 
L 1825 4384 
Q 1516 4384 1395 4259 
Q 1275 4134 1275 3809 
L 1275 3500 
L 2222 3500 
L 2222 3053 
L 1275 3053 
L 1275 0 
L 697 0 
L 697 3053 
L 147 3053 
L 147 3500 
L 697 3500 
L 697 3744 
Q 697 4328 969 4595 
Q 1241 4863 1831 4863 
L 2375 4863 
z
" transform="scale(0.015625)"/>
      </defs>
      <use xlink:href="#Cmmi10-44" transform="translate(0 0.015625)"/>
      <use xlink:href="#Cmr10-31" transform="translate(82.714844 -16.990625) scale(0.7)"/>
      <use xlink:href="#Cmmi10-78" transform="translate(124.092187 0.015625)"/>
      <use xlink:href="#Cmr10-2b" transform="translate(198.730859 0.015625)"/>
      <use xlink:href="#Cmmi10-44" transform="translate(293.975 0.015625)"/>
      <use xlink:href="#Cmr10-30" transform="translate(376.689844 -16.990625) scale(0.7)"/>
      <use xlink:href="#DejaVuSans-20" transform="translate(418.067188 0.015625)"/>
      <use xlink:href="#DejaVuSans-66" transform="translate(449.854297 0.015625)"/>
      <use xlink:href="#DejaVuSans-69" transform="translate(485.059375 0.015625)"/>
      <use xlink:href="#DejaVuSans-74" transform="translate(512.842578 0.015625)"/>
     </g>
    </g>
    <g id="LineCollection_3">
     <path d="M 363.5325 67.85825 
L 377.9325 67.85825 
" style="fill: none; stroke: #808080"/>
     <path d="M 383.6925 67.85825 
L 398.0925 67.85825 
" style="fill: none; stroke: #808080"/>
    </g>
    <g id="LineCollection_4">
     <path d="M 370.7325 75.05825 
L 370.7325 60.65825 
" style="fill: none; stroke: #808080"/>
     <path d="M 390.8925 75.05825 
L 390.8925 60.65825 
" style="fill: none; stroke: #808080"/>
    </g>
    <g id="line2d_50">
     <g>
      <use xlink:href="#mf981d2938e" x="363.5325" y="67.85825" style="fill: #808080; stroke: #808080; stroke-width: 0.5"/>
      <use xlink:href="#mf981d2938e" x="383.6925" y="67.85825" style="fill: #808080; stroke: #808080; stroke-width: 0.5"/>
     </g>
    </g>
    <g id="line2d_51">
     <g>
      <use xlink:href="#mf981d2938e" x="377.9325" y="67.85825" style="fill: #808080; stroke: #808080; stroke-width: 0.5"/>
      <use xlink:href="#mf981d2938e" x="398.0925" y="67.85825" style="fill: #808080; stroke: #808080; stroke-width: 0.5"/>
     </g>
    </g>
    <g id="line2d_52">
     <g>
      <use xlink:href="#m01703803c9" x="370.7325" y="75.05825" style="fill: #808080; stroke: #808080; stroke-width: 0.5"/>
      <use xlink:href="#m01703803c9" x="390.8925" y="75.05825" style="fill: #808080; stroke: #808080; stroke-width: 0.5"/>
     </g>
    </g>
    <g id="line2d_53">
     <g>
      <use xlink:href="#m01703803c9" x="370.7325" y="60.65825" style="fill: #808080; stroke: #808080; stroke-width: 0.5"/>
      <use xlink:href="#m01703803c9" x="390.8925" y="60.65825" style="fill: #808080; stroke: #808080; stroke-width: 0.5"/>
     </g>
    </g>
    <g id="line2d_54"/>
    <g id="line2d_55">
     <g>
      <use xlink:href="#mf54569d8dc" x="370.7325" y="67.85825" style="fill: #0000ff; stroke: #000000; stroke-width: 0.5"/>
      <use xlink:href="#mf54569d8dc" x="390.8925" y="67.85825" style="fill: #0000ff; stroke: #000000; stroke-width: 0.5"/>
     </g>
    </g>
    <g id="text_19">
     <!-- Measured data -->
     <g transform="translate(406.7325 72.89825) scale(0.144 -0.144)">
      <defs>
       <path id="DejaVuSans-75" d="M 544 1381 
L 544 3500 
L 1119 3500 
L 1119 1403 
Q 1119 906 1312 657 
Q 1506 409 1894 409 
Q 2359 409 2629 706 
Q 2900 1003 2900 1516 
L 2900 3500 
L 3475 3500 
L 3475 0 
L 2900 0 
L 2900 538 
Q 2691 219 2414 64 
Q 2138 -91 1772 -91 
Q 1169 -91 856 284 
Q 544 659 544 1381 
z
M 1991 3584 
L 1991 3584 
z
" transform="scale(0.015625)"/>
       <path id="DejaVuSans-64" d="M 2906 2969 
L 2906 4863 
L 3481 4863 
L 3481 0 
L 2906 0 
L 2906 525 
Q 2725 213 2448 61 
Q 2172 -91 1784 -91 
Q 1150 -91 751 415 
Q 353 922 353 1747 
Q 353 2572 751 3078 
Q 1150 3584 1784 3584 
Q 2172 3584 2448 3432 
Q 2725 3281 2906 2969 
z
M 947 1747 
Q 947 1113 1208 752 
Q 1469 391 1925 391 
Q 2381 391 2643 752 
Q 2906 1113 2906 1747 
Q 2906 2381 2643 2742 
Q 2381 3103 1925 3103 
Q 1469 3103 1208 2742 
Q 947 2381 947 1747 
z
" transform="scale(0.015625)"/>
      </defs>
      <use xlink:href="#DejaVuSans-4d"/>
      <use xlink:href="#DejaVuSans-65" transform="translate(86.279297 0)"/>
      <use xlink:href="#DejaVuSans-61" transform="translate(147.802734 0)"/>
      <use xlink:href="#DejaVuSans-73" transform="translate(209.082031 0)"/>
      <use xlink:href="#DejaVuSans-75" transform="translate(261.181641 0)"/>
      <use xlink:href="#DejaVuSans-72" transform="translate(324.560547 0)"/>
      <use xlink:href="#DejaVuSans-65" transform="translate(363.423828 0)"/>
      <use xlink:href="#DejaVuSans-64" transform="translate(424.947266 0)"/>
      <use xlink:href="#DejaVuSans-20" transform="translate(488.423828 0)"/>
      <use xlink:href="#DejaVuSans-64" transform="translate(520.210938 0)"/>
      <use xlink:href="#DejaVuSans-61" transform="translate(583.6875 0)"/>
      <use xlink:href="#DejaVuSans-74" transform="translate(644.966797 0)"/>
      <use xlink:href="#DejaVuSans-61" transform="translate(684.175781 0)"/>
     </g>
    </g>
   </g>
  </g>
 </g>
 <defs>
  <clipPath id="p7aab3ed7e5">
   <rect x="64.850625" y="27.86" width="462.189375" height="354.476875"/>
  </clipPath>
 </defs>
</svg>
